<?xml version="1.0" encoding="UTF-8"?>
<svg xmlns="http://www.w3.org/2000/svg" xmlns:xlink="http://www.w3.org/1999/xlink" version="1.1" viewBox="0 0 340.2 680.3">
  <defs>
    <style>
      .cls-1, .cls-2, .cls-3, .cls-4, .cls-5 {
        fill: none;
      }

      .cls-2 {
        stroke-dasharray: 4 4;
      }

      .cls-2, .cls-3, .cls-4 {
        stroke: #777776;
      }

      .cls-3 {
        stroke-dasharray: 4 4;
      }

      .cls-6 {
        fill: url(#Naamloos_verloop);
      }

      .cls-7 {
        clip-path: url(#clippath-1);
      }

      .cls-8 {
        clip-path: url(#clippath-3);
      }

      .cls-9 {
        clip-path: url(#clippath-4);
      }

      .cls-10 {
        clip-path: url(#clippath-2);
      }

      .cls-11 {
        clip-path: url(#clippath-7);
      }

      .cls-12 {
        clip-path: url(#clippath-6);
      }

      .cls-13 {
        clip-path: url(#clippath-8);
      }

      .cls-14 {
        clip-path: url(#clippath-5);
      }

      .cls-15 {
        fill: #f6f2e9;
      }

      .cls-5 {
        stroke: #000;
        stroke-width: 3px;
      }

      .cls-16 {
        fill: url(#Naamloos_verloop_2);
      }

      .cls-17 {
        fill: url(#Naamloos_verloop_3);
      }

      .cls-18 {
        clip-path: url(#clippath);
      }
    </style>
    <clipPath id="clippath">
      <rect class="cls-1" x="-720.3" width="340.2" height="680.3"/>
    </clipPath>
    <clipPath id="clippath-1">
      <rect class="cls-1" x="-720.3" width="340.2" height="680.3"/>
    </clipPath>
    <clipPath id="clippath-2">
      <rect class="cls-1" x="-656.5" y="63.9" width="53.7" height="552.6"/>
    </clipPath>
    <linearGradient id="Naamloos_verloop" data-name="Naamloos verloop" x1="-720.3" y1="680.3" x2="-719.3" y2="680.3" gradientTransform="translate(-295061.5 311866.7) rotate(90) scale(432.8 -432.8)" gradientUnits="userSpaceOnUse">
      <stop offset="0" stop-color="#69acdf"/>
      <stop offset="0" stop-color="#69acdf"/>
      <stop offset=".1" stop-color="#7bb6e3"/>
      <stop offset=".7" stop-color="#cae3f6"/>
      <stop offset="1" stop-color="#eaf6fe"/>
    </linearGradient>
    <clipPath id="clippath-3">
      <rect class="cls-1" x="-360.2" width="340.2" height="680.3"/>
    </clipPath>
    <clipPath id="clippath-4">
      <rect class="cls-1" x="-360.2" width="340.2" height="680.3"/>
    </clipPath>
    <clipPath id="clippath-5">
      <rect class="cls-1" x="-296.3" y="63.9" width="53.7" height="552.6"/>
    </clipPath>
    <linearGradient id="Naamloos_verloop_2" data-name="Naamloos verloop 2" x1="-360.2" y1="680.3" x2="-359.2" y2="680.3" gradientTransform="translate(-294701.3 155995.2) rotate(90) scale(432.8 -432.8)" gradientUnits="userSpaceOnUse">
      <stop offset="0" stop-color="#69acdf"/>
      <stop offset="0" stop-color="#69acdf"/>
      <stop offset=".1" stop-color="#7bb6e3"/>
      <stop offset=".7" stop-color="#cae3f6"/>
      <stop offset="1" stop-color="#eaf6fe"/>
    </linearGradient>
    <clipPath id="clippath-6">
      <rect class="cls-1" width="340.2" height="680.3"/>
    </clipPath>
    <clipPath id="clippath-7">
      <rect class="cls-1" width="340.2" height="680.3"/>
    </clipPath>
    <clipPath id="clippath-8">
      <rect class="cls-1" x="222.6" y="63.9" width="53.7" height="552.6"/>
    </clipPath>
    <linearGradient id="Naamloos_verloop_3" data-name="Naamloos verloop 3" x1="0" y1="680.3" x2="1" y2="680.3" gradientTransform="translate(465.8 294772) rotate(-180) scale(432.8)" gradientUnits="userSpaceOnUse">
      <stop offset="0" stop-color="#69acdf"/>
      <stop offset="0" stop-color="#69acdf"/>
      <stop offset=".1" stop-color="#7bb6e3"/>
      <stop offset=".7" stop-color="#cae3f6"/>
      <stop offset="1" stop-color="#eaf6fe"/>
    </linearGradient>
  </defs>
  <!-- Generator: Adobe Illustrator 28.6.0, SVG Export Plug-In . SVG Version: 1.2.0 Build 709)  -->
  <g>
    <g id="Laag_1">
      <g class="cls-18">
        <g class="cls-7">
          <rect class="cls-15" x="-692" y="28.3" width="283.5" height="623.6"/>
        </g>
        <rect class="cls-5" x="-690.5" y="29.8" width="280.5" height="620.6"/>
        <rect class="cls-5" x="-679.1" y="41.2" width="257.8" height="597.9"/>
        <g class="cls-10">
          <rect class="cls-6" x="-844" y="125.8" width="428.7" height="428.7" transform="translate(-424.9 -345.6) rotate(-45)"/>
        </g>
        <rect class="cls-5" x="-656.5" y="63.9" width="53.7" height="552.6"/>
        <rect class="cls-5" x="-577.1" y="63.9" width="133.1" height="552.6"/>
        <line class="cls-2" x1="-684.5" y1="33.2" x2="-411.9" y2="335.6"/>
        <line class="cls-3" x1="-413.2" y1="343" x2="-688.9" y2="648.7"/>
        <path class="cls-4" d="M-690.3,650.2l-1.3,1.5M-410.5,337.1l1.3,1.5-1.3,1.5M-688.5,28.7l1.3,1.5"/>
      </g>
      <g class="cls-8">
        <g class="cls-9">
          <rect class="cls-15" x="-331.8" y="28.3" width="283.5" height="623.6"/>
        </g>
        <rect class="cls-5" x="-330.3" y="29.8" width="280.5" height="620.6"/>
        <rect class="cls-5" x="-319" y="41.2" width="257.8" height="597.9"/>
        <g class="cls-14">
          <rect class="cls-16" x="-483.8" y="125.8" width="428.7" height="428.7" transform="translate(-319.4 -90.9) rotate(-45)"/>
        </g>
        <rect class="cls-5" x="-296.3" y="63.9" width="53.7" height="552.6"/>
        <rect class="cls-5" x="-216.9" y="63.9" width="133.1" height="552.6"/>
        <line class="cls-5" x1="-164" y1="62.4" x2="-164" y2="618"/>
        <line class="cls-5" x1="-136.8" y1="62.4" x2="-136.8" y2="618"/>
        <line class="cls-5" x1="-109.6" y1="62.4" x2="-109.6" y2="618"/>
        <line class="cls-5" x1="-191.2" y1="62.4" x2="-191.2" y2="618"/>
        <line class="cls-2" x1="-324.3" y1="33.2" x2="-51.7" y2="335.6"/>
        <line class="cls-3" x1="-53" y1="343" x2="-328.8" y2="648.7"/>
        <path class="cls-4" d="M-330.1,650.2l-1.3,1.5M-50.4,337.1l1.3,1.5-1.3,1.5M-328.4,28.7l1.3,1.5"/>
      </g>
      <g class="cls-12">
        <g class="cls-11">
          <rect class="cls-15" x="28.3" y="28.3" width="283.5" height="623.6"/>
        </g>
        <rect class="cls-5" x="29.8" y="29.8" width="280.5" height="620.6"/>
        <rect class="cls-5" x="41.2" y="41.2" width="257.8" height="597.9"/>
        <g class="cls-13">
          <rect class="cls-17" x="35.1" y="125.8" width="428.7" height="428.7" transform="translate(-167.5 276) rotate(-45)"/>
        </g>
        <rect class="cls-5" x="222.6" y="63.9" width="53.7" height="552.6"/>
        <rect class="cls-5" x="63.9" y="63.9" width="133.1" height="552.6"/>
        <line class="cls-5" x1="197.4" y1="65.7" x2="63.4" y2="194.8"/>
        <line class="cls-5" x1="145.8" y1="64.1" x2="63.4" y2="142.4"/>
        <line class="cls-5" x1="90" y1="64.6" x2="63.4" y2="89.9"/>
        <line class="cls-5" x1="197.4" y1="118.2" x2="63.4" y2="247.2"/>
        <line class="cls-5" x1="197.4" y1="170.6" x2="63.4" y2="299.7"/>
        <line class="cls-5" x1="197.4" y1="223" x2="63.4" y2="352.1"/>
        <line class="cls-5" x1="197.4" y1="275.5" x2="63.4" y2="404.6"/>
        <line class="cls-5" x1="197.4" y1="327.9" x2="63.4" y2="457"/>
        <line class="cls-5" x1="197.4" y1="380.4" x2="63.4" y2="509.4"/>
        <line class="cls-5" x1="197.4" y1="432.8" x2="63.4" y2="561.9"/>
        <line class="cls-5" x1="197.4" y1="485.2" x2="63.4" y2="614.3"/>
        <line class="cls-5" x1="197.4" y1="537.7" x2="117" y2="616.2"/>
        <line class="cls-5" x1="197.4" y1="590.1" x2="170.5" y2="615.7"/>
        <line class="cls-2" x1="35.8" y1="33.2" x2="308.5" y2="335.6"/>
        <line class="cls-3" x1="307.1" y1="343" x2="31.4" y2="648.7"/>
        <path class="cls-4" d="M30.1,650.2l-1.3,1.5M309.8,337.1l1.3,1.5-1.3,1.5M31.8,28.7l1.3,1.5"/>
      </g>
    </g>
  </g>
</svg>