<?xml version="1.0" encoding="utf-8"?>
<!-- Generator: Adobe Illustrator 28.0.0, SVG Export Plug-In . SVG Version: 6.00 Build 0)  -->
<svg version="1.2" baseProfile="tiny" id="Layer_1" xmlns="http://www.w3.org/2000/svg" xmlns:xlink="http://www.w3.org/1999/xlink"
	 x="0px" y="0px" viewBox="0 0 36 14.4" overflow="visible" xml:space="preserve">
<g>
	<path fill="none" d="M10.8,0h14.4v14.4H10.8V0z"/>
	<path d="M17.9,3.9v0.4l0,0v2.8c0,0.1-0.1,0.1-0.1,0.1c-0.1,0-0.1-0.1-0.1-0.1V4.4l0,0c0-0.3-0.2-0.5-0.5-0.5s-0.5,0.2-0.5,0.5v4
		c0,0.1,0,0.1-0.1,0.1c0,0-0.1,0-0.1,0l-1.1-1.1c-0.2-0.2-0.5-0.2-0.7,0c-0.2,0.2-0.2,0.5,0,0.7l1.7,1.7c0.7,0.7,1.5,1,2.5,1H19
		c1.3,0,2.4-1.1,2.4-2.4V5.4c0-0.3-0.2-0.5-0.5-0.5c-0.3,0-0.5,0.2-0.5,0.5v0.9v0.8c0,0.1-0.1,0.1-0.1,0.1s-0.1-0.1-0.1-0.1V6.3V5.4
		V5.3V4.4c0-0.3-0.2-0.5-0.5-0.5s-0.5,0.2-0.5,0.5v2.6c0,0.1-0.1,0.1-0.1,0.1s-0.1-0.1-0.1-0.1V4.4V4.3V3.9c0-0.3-0.2-0.5-0.5-0.5
		C18.1,3.4,17.9,3.7,17.9,3.9z M18.4,3.2c0.4,0,0.7,0.3,0.8,0.7c0.1-0.1,0.3-0.2,0.5-0.2c0.4,0,0.8,0.3,0.8,0.8v0.4
		c0.1-0.1,0.3-0.2,0.5-0.2c0.4,0,0.8,0.3,0.8,0.8v3.1c0,1.5-1.2,2.6-2.6,2.6h-0.1c-1,0-2-0.4-2.7-1.1l-1.7-1.7
		c-0.3-0.3-0.3-0.8,0-1.1c0.3-0.3,0.8-0.3,1.1,0l0.8,0.8V4.4c0-0.4,0.3-0.8,0.8-0.8c0.2,0,0.4,0.1,0.5,0.2C17.7,3.5,18,3.2,18.4,3.2
		z"/>
</g>
</svg>
