<?xml version="1.0" encoding="utf-8"?>
<!-- Generator: Adobe Illustrator 28.0.0, SVG Export Plug-In . SVG Version: 6.00 Build 0)  -->
<svg version="1.1" baseProfile="tiny" id="Layer_1" xmlns="http://www.w3.org/2000/svg" xmlns:xlink="http://www.w3.org/1999/xlink"
	 x="0px" y="0px" viewBox="0 0 512 512" overflow="visible" xml:space="preserve">
<path d="M233.9,146.7v12.6l0,0v92.5c0,2.3-1.9,4.2-4.2,4.2s-4.2-1.9-4.2-4.2v-88.3l0,0c0-9.3-7.5-16.8-16.8-16.8
	s-16.8,7.5-16.8,16.8v134.2c0,1.7-1,3.3-2.6,3.9s-3.4,0.3-4.6-0.9l-35.6-35.6c-6.6-6.6-17.2-6.6-23.8,0c-6.6,6.6-6.6,17.2,0,23.8
	l58.7,58.7c22.1,22.1,52,34.5,83.2,34.5h4.5c44.1,0,79.9-35.8,79.9-79.9v-105c0-9.3-7.5-16.8-16.8-16.8s-16.8,7.5-16.8,16.8v29.4
	v25.2c0,2.3-1.9,4.2-4.2,4.2s-4.2-1.9-4.2-4.2v-25.2v-29.4V193v-29.4c0-9.3-7.5-16.8-16.8-16.8s-16.8,7.5-16.8,16.8v88.3
	c0,2.3-1.9,4.2-4.2,4.2s-4.2-1.9-4.2-4.2v-88.3v-4.2v-12.6c0-9.3-7.5-16.8-16.8-16.8C241.4,129.9,233.9,137.4,233.9,146.7z
	 M250.7,121.5c13.3,0,24.2,10.2,25.2,23.3c4.5-4,10.3-6.5,16.9-6.5c13.9,0,25.2,11.3,25.2,25.2v14.8c4.5-4,10.3-6.4,16.8-6.4
	c13.9,0,25.2,11.3,25.2,25.2v105.1c0,48.8-39.5,88.3-88.3,88.3h-4.5c-33.5,0-65.5-13.3-89.2-36.9l-58.7-58.7
	c-9.8-9.8-9.8-25.8,0-35.7c9.8-9.9,25.8-9.8,35.7,0l28.4,28.4v-124c0-13.9,11.3-25.2,25.2-25.2c6.5,0,12.4,2.5,16.9,6.5
	C226.6,131.8,237.4,121.5,250.7,121.5z" fill="currentColor"/>
</svg>
