<svg width="24" height="24" viewBox="0 0 24 24" xmlns="http://www.w3.org/2000/svg">
    <path d="M15.997 20.067v-2.084a.593.593 0 0 0-1.187 0v1.83H4.187V9.195h1.825a.593.593 0 0 0 0-1.187H3.933A.934.934 0 0 0 3 8.94v11.126c0 .514.418.933.933.933h11.13a.934.934 0 0 0 .934-.933zM9.19 14.805h10.228V4.582H9.19v10.223zm11.019 1.583H8.399a.791.791 0 0 1-.791-.791V3.79c0-.437.354-.791.791-.791h11.81c.437 0 .791.354.791.791v11.806a.791.791 0 0 1-.791.79z" fill="currentColor" fill-rule="nonzero"/>
</svg>
