<svg width="24" height="24" viewBox="0 0 24 24" xmlns="http://www.w3.org/2000/svg">
    <g fill="none" fill-rule="evenodd">
        <rect stroke="currentColor" stroke-width="1.5" x="5" y="19" width="14" height="2" rx=".5"/>
        <path d="M12 3c3.07 0 4.5 1.032 4.5 2.998 0 1.967-1.43 4.954-1.43 5.99V15H20a1 1 0 0 1 1 1v2a1 1 0 0 1-1 1H4a1 1 0 0 1-1-1v-2a1 1 0 0 1 1-1h5.029l.001-3.013c0-1.064-1.53-4.037-1.53-5.989S8.93 3 12 3z" stroke="currentColor" stroke-width="1.5"/>
        <circle fill="currentColor" cx="11.75" cy="5.05" r="1"/>
        <path d="M13.696 4.304c.981.173 1.77 1.067 1.61 1.973a.75.75 0 0 1-1.477-.26.696.696 0 0 0-.393-.236.75.75 0 1 1 .26-1.477z" fill="currentColor" fill-rule="nonzero"/>
    </g>
</svg>
