<svg width="24" height="24" viewBox="0 0 24 24" xmlns="http://www.w3.org/2000/svg">
    <g fill="none" fill-rule="evenodd">
        <path d="M18.511 4.516 8.905 14.12l-1.017-1.017 9.597-9.614a.333.333 0 0 1 .475 0l.551.551c.131.131.131.344 0 .475zM6.57 14.464l.977.977-1.615.632.638-1.61zM19.495 3.058l-.552-.552A1.714 1.714 0 0 0 17.723 2h-.001c-.462 0-.896.18-1.222.507L5.508 13.519a.692.692 0 0 0-.155.236L4.05 17.048a.695.695 0 0 0 .9.904l3.304-1.294a.697.697 0 0 0 .239-.155L19.495 5.5a1.729 1.729 0 0 0 0-2.442z" fill="currentColor" fill-rule="nonzero"/>
        <rect id="stroke_color_bar" fill="currentColor" x="2" y="19" width="20" height="3" rx="1"/>
    </g>
</svg>
