<svg width="24" height="24" viewBox="0 0 24 24" xmlns="http://www.w3.org/2000/svg">
    <path d="M21.31 20.613h-8.043c.196-.176.378-.368.545-.572l6.947-8.616a2.516 2.516 0 0 0-.351-3.487l-6.341-5.383a2.343 2.343 0 0 0-3.315.29l-7.761 9.18a4.294 4.294 0 0 0 .4 5.907l2.88 2.681a5.17 5.17 0 0 0 3.495 1.378H21.31a.69.69 0 0 0 0-1.378zm-9.504-16.88a.965.965 0 0 1 .69-.344h.082c.227 0 .447.08.62.227l6.335 5.363c.473.394.547 1.094.165 1.578l-5.204 6.451-8.112-6.858 5.424-6.417zM4.307 16.92a2.915 2.915 0 0 1-.262-4.005l1.413-1.71 8.12 6.893-.876 1.09a3.77 3.77 0 0 1-5.514.433l-2.88-2.701z" fill="currentColor" fill-rule="nonzero" stroke="currentColor" stroke-width=".2"/>
</svg>
