<svg width="24" height="24" viewBox="0 0 24 24" xmlns="http://www.w3.org/2000/svg">
    <path d="M19.325 5.83 8.518 16.637l-1.144-1.145L18.17 4.676a.375.375 0 0 1 .534 0l.621.62a.378.378 0 0 1 0 .534zM5.89 17.022l1.1 1.1-1.817.71.717-1.81zM20.432 4.19l-.62-.62A1.929 1.929 0 0 0 18.437 3a1.93 1.93 0 0 0-1.375.57L4.696 15.96a.779.779 0 0 0-.174.264L3.055 19.93a.782.782 0 0 0 1.013 1.017l3.717-1.455c.1-.04.192-.1.268-.176L20.432 6.937a1.945 1.945 0 0 0 0-2.747z" fill="currentColor" fill-rule="nonzero"/>
</svg>
