<svg width="24" height="24" viewBox="0 0 24 24" xmlns="http://www.w3.org/2000/svg">
    <path d="M14.115 18.23a.708.708 0 0 0 .691-.694l.202-8.54a.696.696 0 0 0-.676-.713.688.688 0 0 0-.708.673l-.2 8.549c-.01.382.292.726.674.726h.017zm-3.26 0h.016c.382 0 .685-.367.676-.75l-.201-8.551a.699.699 0 0 0-.708-.686.687.687 0 0 0-.676.703l.201 8.57c.01.377.317.715.692.715zm-.332-12.856h3.954v-.99h-3.954v.99zM21 6.164a.791.791 0 0 1-.79.792H4.79a.791.791 0 0 1 0-1.582h4.35v-1.78c0-.383.254-.594.636-.594h5.447c.382 0 .637.211.637.593v1.78h4.35c.436 0 .79.355.79.792zm-2.096 2.649-.603 11.438a.79.79 0 0 1-.79.749H7.489a.79.79 0 0 1-.79-.75L6.096 8.814a.79.79 0 1 1 1.58-.083l.563 10.688h8.522l.564-10.688a.791.791 0 1 1 1.58.083z" fill="currentColor" fill-rule="nonzero"/>
</svg>
