<svg id="Layer_1" xmlns="http://www.w3.org/2000/svg" viewBox="0 0 36 36"><defs><style>.cls-1{fill:#f6e27d;}.cls-2{fill:#f8e99b;}.cls-3{fill:#ebafd1;}.cls-4{fill:#e592bf;}.cls-5{fill:#efc27b;}.cls-6{fill:#80cb93;}.cls-7{fill:#95d5a7;}.cls-8{fill:#b4d8f1;}.cls-9{fill:#b681d5;}.cls-10{fill:#acfff4;}.cls-11{fill:#d8d8da;}.cls-12{fill:#d4b6e6;}.cls-13{fill:#e07188;}</style></defs><path class="cls-11" d="m18,8c-5.52,0-10,4.48-10,10s4.48,10,10,10,10-4.48,10-10-4.48-10-10-10Zm0,13.16c-1.74,0-3.16-1.41-3.16-3.16s1.41-3.16,3.16-3.16,3.16,1.41,3.16,3.16-1.41,3.16-3.16,3.16Z"/><path class="cls-12" d="m19.05,15.37h8.6c-.7-2.57-2.4-4.74-4.66-6.04l-6.04,6.04h2.11Z"/><path class="cls-3" d="m16.95,15.37l6.04-6.04c-1.47-.85-3.17-1.33-4.99-1.33-.91,0-1.79.12-2.63.35v8.6l1.58-1.58Z"/><path class="cls-13" d="m15.37,16.95v-8.6c-2.57.7-4.74,2.4-6.04,4.66l6.04,6.04v-2.11h0Z"/><polygon class="cls-11" points="15.37 16.95 16.95 15.37 19.05 15.37 19.05 15.37 16.95 15.37 15.37 16.95"/><polygon class="cls-11" points="16.95 20.63 15.37 19.05 16.95 20.63 19.05 20.63 20.63 19.05 19.05 20.63 16.95 20.63"/><path class="cls-8" d="m27.65,15.37h-8.6s.04,0,.04,0l1.54,1.58,6.04,6.04c.85-1.47,1.33-3.17,1.33-4.99,0-.91-.12-1.79-.35-2.63Z"/><path class="cls-10" d="m20.63,19.05v8.6c2.57-.7,4.74-2.4,6.04-4.66l-6.04-6.04v2.11Z"/><path class="cls-7" d="m19.05,20.63l-6.04,6.04c1.47.85,3.17,1.33,4.99,1.33.91,0,1.79-.12,2.63-.35v-8.6l-1.58,1.58Z"/><path class="cls-2" d="m16.95,20.63h-8.6c.7,2.57,2.4,4.74,4.66,6.04l6.04-6.04h-2.11Z"/><path class="cls-5" d="m15.37,19.05l-6.04-6.04c-.85,1.47-1.33,3.17-1.33,4.99,0,.91.12,1.79.35,2.63h8.6l-1.58-1.58Z"/><polygon class="cls-11" points="19.09 15.37 19.05 15.37 20.63 16.95 19.09 15.37"/><path class="cls-9" d="m27.65,15.37c-.7-2.57-2.4-4.74-4.66-6.04l-4.99,4.99v1.05h9.65Z"/><path class="cls-4" d="m22.99,9.33c-1.47-.85-3.17-1.33-4.99-1.33v6.32l4.99-4.99Z"/><path class="cls-6" d="m18,21.68v6.32c.91,0,1.79-.12,2.63-.35v-8.6l-1.58,1.58-1.05,1.05Z"/><polygon class="cls-1" points="19.05 20.63 18 20.63 18 21.68 19.05 20.63"/></svg>