<svg id="Layer_1" xmlns="http://www.w3.org/2000/svg" viewBox="0 0 36 36"><defs><style>.cls-1{fill:#f6e27d;}.cls-2{fill:#f8e99b;}.cls-3{fill:#ebafd1;}.cls-4{fill:#e592bf;}.cls-5{fill:#efc27b;}.cls-6{fill:#80cb93;}.cls-7{fill:#95d5a7;}.cls-8{fill:#b4d8f1;}.cls-9{fill:#b681d5;}.cls-10{fill:#acfff4;}.cls-11{fill:#d8d8da;}.cls-12{fill:#d4b6e6;}.cls-13{fill:#e07188;}</style></defs><path class="cls-11" d="m18,0C8.06,0,0,8.06,0,18s8.06,18,18,18,18-8.06,18-18S27.94,0,18,0Zm0,23.68c-3.14,0-5.68-2.54-5.68-5.68s2.54-5.68,5.68-5.68,5.68,2.54,5.68,5.68-2.54,5.68-5.68,5.68Z"/><path class="cls-12" d="m19.89,13.26h15.47c-1.26-4.63-4.32-8.52-8.39-10.87l-10.87,10.87h3.79Z"/><path class="cls-3" d="m16.1,13.26L26.97,2.39c-2.64-1.52-5.71-2.39-8.97-2.39-1.64,0-3.23.22-4.74.63v15.47l2.84-2.84Z"/><path class="cls-13" d="m13.26,16.1V.63C8.63,1.89,4.74,4.96,2.39,9.02l10.87,10.87v-3.79h0Z"/><polygon class="cls-11" points="13.26 16.1 16.1 13.26 19.89 13.26 19.89 13.26 16.1 13.26 13.26 16.1"/><polygon class="cls-11" points="16.1 22.73 13.26 19.89 16.1 22.73 19.89 22.73 22.73 19.89 19.89 22.73 16.1 22.73"/><path class="cls-8" d="m35.36,13.26h-15.47s.07,0,.07,0l2.77,2.84,10.87,10.87c1.52-2.64,2.39-5.71,2.39-8.97,0-1.64-.22-3.23-.63-4.74Z"/><path class="cls-10" d="m22.73,19.89v15.47c4.63-1.26,8.52-4.32,10.87-8.39l-10.87-10.87v3.79Z"/><path class="cls-7" d="m19.89,22.73l-10.87,10.87c2.64,1.52,5.71,2.39,8.97,2.39,1.64,0,3.23-.22,4.74-.63v-15.47l-2.84,2.84Z"/><path class="cls-2" d="m16.1,22.73H.63c1.26,4.63,4.32,8.52,8.39,10.87l10.87-10.87h-3.79Z"/><path class="cls-5" d="m13.26,19.89L2.39,9.02C.87,11.66,0,14.73,0,18c0,1.64.22,3.23.63,4.74h15.47l-2.84-2.84Z"/><polygon class="cls-11" points="19.96 13.26 19.89 13.26 22.73 16.1 19.96 13.26"/><path class="cls-9" d="m35.36,13.26c-1.26-4.63-4.32-8.52-8.39-10.87l-8.97,8.97v1.89h17.37Z"/><path class="cls-4" d="m26.97,2.39c-2.64-1.52-5.71-2.39-8.97-2.39v11.37L26.97,2.39Z"/><path class="cls-6" d="m18,24.63v11.37c1.64,0,3.23-.22,4.74-.63v-15.47l-2.84,2.84-1.89,1.89Z"/><polygon class="cls-1" points="19.89 22.73 18 22.73 18 24.63 19.89 22.73"/></svg>