<svg width="24" height="24" viewBox="0 0 24 24" xmlns="http://www.w3.org/2000/svg">
    <path id="white-stroke-color-icon" d="M12 1.5c2.9 0 5.524 1.175 7.425 3.075 1.9 1.9 3.075 4.526 3.075 7.425 0 2.9-1.175 5.524-3.075 7.425A10.467 10.467 0 0 1 12 22.5c-2.9 0-5.524-1.175-7.425-3.075A10.467 10.467 0 0 1 1.5 12c0-2.9 1.175-5.524 3.075-7.425C6.475 2.675 9.101 1.5 12 1.5zm0 3c-2.071 0-3.946.84-5.303 2.197A7.477 7.477 0 0 0 4.5 12c0 2.071.84 3.946 2.197 5.303A7.477 7.477 0 0 0 12 19.5c2.071 0 3.946-.84 5.303-2.197A7.477 7.477 0 0 0 19.5 12c0-2.071-.84-3.946-2.197-5.303A7.477 7.477 0 0 0 12 4.5z" fill="#FFF" fill-rule="nonzero" stroke="#FAFAFA"/>
</svg>
