<svg version="1.2" baseProfile="tiny" id="Layer_1" xmlns="http://www.w3.org/2000/svg" xmlns:xlink="http://www.w3.org/1999/xlink"
     x="0px" y="0px" viewBox="0 0 15.5 14.4" overflow="visible" xml:space="preserve">
<circle cx="4.5" cy="4.2" r="0.4"/>
    <circle cx="6.1" cy="4.2" r="0.4"/>
    <circle cx="7.7" cy="4.2" r="0.4"/>
    <circle cx="9.2" cy="4.2" r="0.4"/>
    <circle cx="10.8" cy="4.2" r="0.4"/>
    <circle cx="4.5" cy="5.8" r="0.4"/>
    <circle cx="6.1" cy="5.8" r="0.4"/>
    <circle cx="7.7" cy="5.8" r="0.4"/>
    <circle cx="9.2" cy="5.8" r="0.4"/>
    <circle cx="10.8" cy="5.8" r="0.4"/>
    <circle cx="4.5" cy="7.4" r="0.4"/>
    <circle cx="6.1" cy="7.4" r="0.4"/>
    <circle cx="7.7" cy="7.4" r="0.4"/>
    <circle cx="9.2" cy="7.4" r="0.4"/>
    <circle cx="10.8" cy="7.4" r="0.4"/>
    <circle cx="4.5" cy="9" r="0.4"/>
    <circle cx="6.1" cy="9" r="0.4"/>
    <circle cx="7.7" cy="9" r="0.4"/>
    <circle cx="9.2" cy="9" r="0.4"/>
    <circle cx="10.8" cy="9" r="0.4"/>
    <circle cx="4.5" cy="10.6" r="0.4"/>
    <circle cx="6.1" cy="10.6" r="0.4"/>
    <circle cx="7.7" cy="10.6" r="0.4"/>
    <circle cx="9.2" cy="10.6" r="0.4"/>
    <circle cx="10.8" cy="10.6" r="0.4"/>
</svg>
