<svg version="1.1" id="Layer_1" xmlns="http://www.w3.org/2000/svg" xmlns:xlink="http://www.w3.org/1999/xlink" x="0px" y="0px"
     viewBox="0 0 15.5 14.4" style="enable-background:new 0 0 15.5 14.4;" xml:space="preserve">
<circle cx="3.6" cy="3.2" r="0.3"/>
    <circle cx="4.9" cy="3.2" r="0.3"/>
    <circle cx="6.3" cy="3.2" r="0.3"/>
    <circle cx="7.7" cy="3.2" r="0.3"/>
    <circle cx="9" cy="3.2" r="0.3"/>
    <circle cx="10.4" cy="3.2" r="0.3"/>
    <circle cx="11.8" cy="3.2" r="0.3"/>
    <circle cx="3.6" cy="4.6" r="0.3"/>
    <circle cx="4.9" cy="4.6" r="0.3"/>
    <circle cx="6.3" cy="4.6" r="0.3"/>
    <circle cx="7.7" cy="4.6" r="0.3"/>
    <circle cx="9" cy="4.6" r="0.3"/>
    <circle cx="10.4" cy="4.6" r="0.3"/>
    <circle cx="11.8" cy="4.6" r="0.3"/>
    <circle cx="3.6" cy="6" r="0.3"/>
    <circle cx="4.9" cy="6" r="0.3"/>
    <circle cx="6.3" cy="6" r="0.3"/>
    <circle cx="7.7" cy="6" r="0.3"/>
    <circle cx="9" cy="6" r="0.3"/>
    <circle cx="10.4" cy="6" r="0.3"/>
    <circle cx="11.8" cy="6" r="0.3"/>
    <circle cx="3.6" cy="7.4" r="0.3"/>
    <circle cx="4.9" cy="7.4" r="0.3"/>
    <circle cx="6.3" cy="7.4" r="0.3"/>
    <circle cx="7.7" cy="7.4" r="0.3"/>
    <circle cx="9" cy="7.4" r="0.3"/>
    <circle cx="10.4" cy="7.4" r="0.3"/>
    <circle cx="11.8" cy="7.4" r="0.3"/>
    <circle cx="3.6" cy="8.8" r="0.3"/>
    <circle cx="4.9" cy="8.8" r="0.3"/>
    <circle cx="6.3" cy="8.8" r="0.3"/>
    <circle cx="7.7" cy="8.8" r="0.3"/>
    <circle cx="9" cy="8.8" r="0.3"/>
    <circle cx="10.4" cy="8.8" r="0.3"/>
    <circle cx="11.8" cy="8.8" r="0.3"/>
    <circle cx="3.6" cy="10.2" r="0.3"/>
    <circle cx="4.9" cy="10.2" r="0.3"/>
    <circle cx="6.3" cy="10.2" r="0.3"/>
    <circle cx="7.7" cy="10.2" r="0.3"/>
    <circle cx="9" cy="10.2" r="0.3"/>
    <circle cx="10.4" cy="10.2" r="0.3"/>
    <circle cx="11.8" cy="10.2" r="0.3"/>
    <circle cx="3.6" cy="11.6" r="0.3"/>
    <circle cx="4.9" cy="11.6" r="0.3"/>
    <circle cx="6.3" cy="11.6" r="0.3"/>
    <circle cx="7.7" cy="11.6" r="0.3"/>
    <circle cx="9" cy="11.6" r="0.3"/>
    <circle cx="10.4" cy="11.6" r="0.3"/>
    <circle cx="11.8" cy="11.6" r="0.3"/>
</svg>
