<svg version="1.2" baseProfile="tiny" id="Layer_1" xmlns="http://www.w3.org/2000/svg" xmlns:xlink="http://www.w3.org/1999/xlink"
     x="0px" y="0px" viewBox="0 0 15.5 14.4" overflow="visible" xml:space="preserve">
<circle cx="4.4" cy="4" r="0.2"/>
    <circle cx="5.5" cy="4" r="0.2"/>
    <circle cx="6.6" cy="4" r="0.2"/>
    <circle cx="7.7" cy="4" r="0.2"/>
    <circle cx="8.8" cy="4" r="0.2"/>
    <circle cx="9.8" cy="4" r="0.2"/>
    <circle cx="10.9" cy="4" r="0.2"/>
    <circle cx="4.4" cy="5.1" r="0.2"/>
    <circle cx="5.5" cy="5.1" r="0.2"/>
    <circle cx="6.6" cy="5.1" r="0.2"/>
    <circle cx="7.7" cy="5.1" r="0.2"/>
    <circle cx="8.8" cy="5.1" r="0.2"/>
    <circle cx="9.8" cy="5.1" r="0.2"/>
    <circle cx="10.9" cy="5.1" r="0.2"/>
    <circle cx="4.4" cy="6.3" r="0.2"/>
    <circle cx="5.5" cy="6.3" r="0.2"/>
    <circle cx="6.6" cy="6.3" r="0.2"/>
    <circle cx="7.7" cy="6.3" r="0.2"/>
    <circle cx="8.8" cy="6.3" r="0.2"/>
    <circle cx="9.8" cy="6.3" r="0.2"/>
    <circle cx="10.9" cy="6.3" r="0.2"/>
    <circle cx="4.4" cy="7.4" r="0.2"/>
    <circle cx="5.5" cy="7.4" r="0.2"/>
    <circle cx="6.6" cy="7.4" r="0.2"/>
    <circle cx="7.7" cy="7.4" r="0.2"/>
    <circle cx="8.8" cy="7.4" r="0.2"/>
    <circle cx="9.8" cy="7.4" r="0.2"/>
    <circle cx="10.9" cy="7.4" r="0.2"/>
    <circle cx="4.4" cy="8.5" r="0.2"/>
    <circle cx="5.5" cy="8.5" r="0.2"/>
    <circle cx="6.6" cy="8.5" r="0.2"/>
    <circle cx="7.7" cy="8.5" r="0.2"/>
    <circle cx="8.8" cy="8.5" r="0.2"/>
    <circle cx="9.8" cy="8.5" r="0.2"/>
    <circle cx="10.9" cy="8.5" r="0.2"/>
    <circle cx="4.4" cy="9.6" r="0.2"/>
    <circle cx="5.5" cy="9.6" r="0.2"/>
    <circle cx="6.6" cy="9.6" r="0.2"/>
    <circle cx="7.7" cy="9.6" r="0.2"/>
    <circle cx="8.8" cy="9.6" r="0.2"/>
    <circle cx="9.8" cy="9.6" r="0.2"/>
    <circle cx="10.9" cy="9.6" r="0.2"/>
    <circle cx="4.4" cy="10.7" r="0.2"/>
    <circle cx="5.5" cy="10.7" r="0.2"/>
    <circle cx="6.6" cy="10.7" r="0.2"/>
    <circle cx="7.7" cy="10.7" r="0.2"/>
    <circle cx="8.8" cy="10.7" r="0.2"/>
    <circle cx="9.8" cy="10.7" r="0.2"/>
    <circle cx="10.9" cy="10.7" r="0.2"/>
</svg>
