<svg version="1.2" baseProfile="tiny" id="Layer_1" xmlns="http://www.w3.org/2000/svg" xmlns:xlink="http://www.w3.org/1999/xlink"
	 x="0px" y="0px" viewBox="0 0 50 50" overflow="visible" xml:space="preserve">
<rect fill="none" width="50" height="50"/>
	<g>
	<path fill="currentColor" d="M18.1,18.2v13.7h13.7V18.2H18.1z M16.3,16.3h1.9h13.7h1.9v1.9v13.7v1.9h-1.9H18.1h-1.9v-1.9V18.2V16.3z
		 M28.8,22.5l-0.7,0.7L26.3,25l1.8,1.8l0.7,0.7l-1.3,1.3l-0.7-0.7L25,26.4l-1.8,1.8l-0.7,0.7l-1.3-1.3l0.7-0.7l1.8-1.8l-1.8-1.8
		l-0.7-0.7l1.3-1.3l0.7,0.7l1.8,1.8l1.8-1.8l0.7-0.7L28.8,22.5z"/>
</g>
</svg>
